<svg xmlns="http://www.w3.org/2000/svg" viewBox="0 0 583 739">
<g transform="translate(-1.073169,738.466123) scale(0.1,-0.1)" fill="#3BF087">
<path d="M2877 7328 c-232 -328 -2068 -3313 -2477 -4028 -173 -303 -322 -598
-360 -715 -31 -97 -32 -104 -27 -230 6 -145 12 -175 35 -175 33 0 634 375
1382 862 l435 284 193 329 c418 716 719 1213 817 1351 45 62 48 64 65 49 49
-45 255 -375 745 -1197 l309 -517 415 -269 c535 -347 1371 -883 1387 -889 15
-6 29 142 29 302 0 96 -4 120 -29 190 -92 257 -344 694 -1164 2021 -928 1504
-1663 2665 -1701 2688 -5 4 -30 -22 -54 -56z"/>
<path d="M2500 2988 c-613 -389 -2104 -1322 -2312 -1447 l-177 -106 0 -560 c0
-516 7 -780 25 -849 l6 -26 64 35 c174 98 1221 763 2099 1334 390 254 715 459
722 457 6 -3 313 -196 680 -429 1506 -956 2147 -1357 2168 -1357 53 0 65 158
65 834 l0 561 -1428 893 c-785 491 -1440 901 -1457 911 l-30 18 -425 -269z"/>
</g>
</svg>